<svg id="Layer_1" data-name="Layer 1" xmlns="http://www.w3.org/2000/svg" width="32.7mm" height="52.45mm" viewBox="0 0 92.71 148.69"><defs><style>.cls-1{fill:#231f20;}.cls-2{fill:#32a7df;}.cls-3{fill:#30a8e0;}</style></defs><title>logo</title><path class="cls-1" d="M443.42,371.69a33.68,33.68,0,0,0-1.6-10.4,34.2,34.2,0,0,0-4.5-9.2,34.68,34.68,0,0,0-6.9-7.4,32.8,32.8,0,0,0-8.7-5,33.67,33.67,0,0,0-15.8,12.3,32.86,32.86,0,0,0-6.1,19.7h-24.4a58.55,58.55,0,0,1,23-46.6,60.23,60.23,0,0,1-17-20.2,58.06,58.06,0,0,1-6.3-26.8h24.5a33.28,33.28,0,0,0,6.1,19.7,34.72,34.72,0,0,0,15.6,12.5,34.19,34.19,0,0,0,15.6-12.5,33.46,33.46,0,0,0,6.2-19.8h24.3a56.75,56.75,0,0,1-6.2,26.5,58.1,58.1,0,0,1-16.7,20.1,60.92,60.92,0,0,1,17,20.4,57.25,57.25,0,0,1,6.3,26.6Z" transform="translate(-375.12 -223)"/><path class="cls-2" d="M467.42,273l-7.63-24.13a12.7,12.7,0,0,1-9.09,0L443.07,273Z" transform="translate(-375.12 -223)"/><polygon class="cls-2" points="83.17 21.15 80.13 11.53 83.17 21.15 83.17 21.15"/><polygon class="cls-2" points="77.09 21.15 77.09 21.15 80.13 11.53 77.09 21.15"/><path class="cls-2" d="M458.28,244.15l-3-9.61-3,9.61a7.92,7.92,0,0,0,6.08,0Z" transform="translate(-375.12 -223)"/><path class="cls-1" d="M387.25,253.74a2.84,2.84,0,1,1,0,5.67v13.67h12.14V250.75c-4.66-3.87-8-14.59-8-27.22,0-.18,0-.35,0-.53h-3.71v30.74Z" transform="translate(-375.12 -223)"/><path class="cls-1" d="M387.25,273.07V259.41a2.84,2.84,0,1,1,0-5.67h-.42V223h-3.71c0,.18,0,.35,0,.53,0,12.63-3.35,23.35-8,27.22v22.33Z" transform="translate(-375.12 -223)"/><path class="cls-3" d="M398.42,325.09a58.55,58.55,0,0,0-23,46.6h24.4a32.86,32.86,0,0,1,6.1-19.7,33.67,33.67,0,0,1,15.8-12.3c-4.88-2.52-8.55-4.39-11.78-6.27A68.31,68.31,0,0,1,398.42,325.09Z" transform="translate(-375.12 -223)"/><path class="cls-2" d="M421.32,310.29c3,1.41,6.16,3.05,9.43,5a122.18,122.18,0,0,1,13.77,9.34,58.1,58.1,0,0,0,16.7-20.1,56.75,56.75,0,0,0,6.2-26.5h-24.3a33.46,33.46,0,0,1-6.2,19.8A34.19,34.19,0,0,1,421.32,310.29Z" transform="translate(-375.12 -223)"/></svg>