<?xml version="1.0" encoding="utf-8"?>
<!-- Generator: Adobe Illustrator 21.1.0, SVG Export Plug-In . SVG Version: 6.00 Build 0)  -->
<svg version="1.1" id="Layer_1" xmlns="http://www.w3.org/2000/svg" xmlns:xlink="http://www.w3.org/1999/xlink" x="0px" y="0px"
	 viewBox="0 0 729.9 595.3" style="enable-background:new 0 0 729.9 595.3;" xml:space="preserve">
<style type="text/css">
	.st0{fill:#FFFFFF;}
	.st1{fill:#231F20;}
	.st2{fill:none;}
	.st3{fill:#29AAE1;}
</style>
<rect class="st0" width="729.9" height="595.3"/>
<title>logo</title>
<g>
	<path class="st1" d="M286.1,353.7c0-3.5-0.5-7-1.6-10.4c-1-3.3-2.6-6.4-4.5-9.2c-1.9-2.8-4.3-5.3-6.9-7.4c-2.6-2.1-5.6-3.8-8.7-5
		c-6.4,2.4-11.9,6.7-15.8,12.3c-4.1,5.7-6.2,12.6-6.1,19.7h-24.4c0-9.1,2.1-18.2,6.2-26.3c4-8,9.7-14.9,16.8-20.3
		c-7.1-5.4-12.9-12.3-17-20.2c-4.2-8.3-6.4-17.5-6.3-26.8h24.5c-0.1,7,2,13.9,6.1,19.7c3.9,5.6,9.3,10,15.6,12.5
		c6.3-2.5,11.8-6.9,15.6-12.5c4.1-5.8,6.3-12.7,6.2-19.8h24.3c0.1,9.2-2,18.3-6.2,26.5c-4,7.9-9.7,14.8-16.7,20.1
		c7.1,5.5,12.9,12.4,17,20.4c4.2,8.2,6.4,17.4,6.3,26.6L286.1,353.7z"/>
	<path class="st1" d="M115,260.1h24v46.8c0,12.6,10.2,22.9,22.9,22.9s22.9-10.2,22.9-22.9v-46.8h24v46.8c0,6.3-1.2,12.5-3.6,18.2
		c-4.7,11.2-13.7,20.2-24.9,24.9c-11.7,4.8-24.8,4.8-36.4,0c-11.2-4.7-20.2-13.7-24.9-24.9c-2.4-5.8-3.7-12-3.6-18.2L115,260.1z"/>
	<path class="st1" d="M320,306.9c0-6.3,1.2-12.5,3.6-18.2c4.7-11.2,13.7-20.2,24.9-24.9c5.8-2.4,12-3.7,18.2-3.6
		c4.1,0,8.1,0.5,12,1.6c3.8,1,7.4,2.5,10.9,4.4v-30.4h24v71.2c0,6.3-1.2,12.5-3.6,18.2c-4.7,11.2-13.7,20.2-24.9,24.9
		c-11.7,4.8-24.8,4.8-36.4,0c-11.2-4.7-20.2-13.7-24.9-24.9C321.2,319.4,320,313.2,320,306.9z M344,306.9c0,12.7,10.4,23,23.1,23
		c12.7,0,23-10.4,23-23.1c0-12.7-10.4-23-23.1-23c-9.3,0-17.6,5.6-21.2,14.2C344.6,300.8,344,303.9,344,306.9L344,306.9z"/>
	<path class="st1" d="M520.4,260.1h25.9l21.9,59.6l21.9-59.6H616l-34.5,93.7h-26.7L520.4,260.1z"/>
	<path class="st1" d="M515.4,306.3c0.1-25.4-20.3-46-45.7-46.2c-6.3,0-12.5,1.2-18.3,3.7c-11.2,4.7-20.2,13.7-24.9,24.9
		c-9.8,23.5,1.4,50.5,24.9,60.3c21.2,8.8,45.5,0.7,57.3-19c-35,0.3-42.3,1.2-50.6-3.5c-3.5-2-6.3-4.9-8.2-8.4h64
		C514.9,314.3,515.4,310.3,515.4,306.3z M450.9,294.2c2.1-3,4.9-5.5,8.1-7.3c6.8-3.7,15-3.7,21.7,0c3.2,1.8,5.9,4.3,8.1,7.3H450.9z"
		/>
	<polygon class="st2" points="590.1,260.1 568.2,319.7 568.1,319.3 555.3,353.7 581.5,353.7 616,260.1 	"/>
	<polygon class="st3" points="546.3,260.1 520.4,260.1 554.9,353.7 555.3,353.7 568.1,319.3 	"/>
</g>
</svg>
